<?xml version="1.0" encoding="utf-8"?>
<!-- Generator: Adobe Illustrator 12.0.0, SVG Export Plug-In  -->
<!DOCTYPE svg PUBLIC "-//W3C//DTD SVG 1.1//EN" "http://www.w3.org/Graphics/SVG/1.1/DTD/svg11.dtd" [
	<!ENTITY ns_flows "http://ns.adobe.com/Flows/1.0/">
	<!ENTITY ns_svg "http://www.w3.org/2000/svg">
	<!ENTITY ns_xlink "http://www.w3.org/1999/xlink">
]>
<svg  version="1.1" xmlns="&ns_svg;" xmlns:xlink="&ns_xlink;" xmlns:a="http://ns.adobe.com/AdobeSVGViewerExtensions/3.0/"
	 width="6837" height="3897" viewBox="3421.447 1948.737 6837 3897" enable-background="new 3421.447 1948.737 6837 3897"
	 xml:space="preserve">
<defs>
</defs>
<g>
	<defs>
		<rect id="XMLID_6_" x="0" width="13680.001" height="7792.737"/>
	</defs>
	<clipPath id="XMLID_9_">
		<use xlink:href="#XMLID_6_" />
	</clipPath>
	<path clip-path="url(#XMLID_9_)" fill="#FFFFFF" stroke="#000000" d="M4628.8,2173.275c0-73.638-15.229-129.501-50.776-167.592
		c-33.011-38.091-78.717-55.864-134.58-55.864c-55.855,0-101.561,17.773-134.572,55.864c-30.468,38.091-48.24,93.955-48.24,167.592
		v1005.481c0,238.668-81.252,358.011-243.756,358.011c-60.935,0-109.175-12.703-142.186-40.617
		c-33.012-27.932-55.864-60.953-71.093-99.025c-12.704-38.091-27.932-88.885-40.626-152.345
		c-12.703-58.408-33.012-101.569-58.4-132.046c-22.853-27.932-60.943-40.617-109.184-40.617c-50.785,0-91.411,15.229-124.413,45.706
		c-33.012,30.458-48.25,73.619-48.25,132.028c0,55.864,7.624,111.728,25.397,172.662c15.229,60.935,38.082,114.255,63.479,159.96
		c50.775,86.322,116.799,149.801,200.586,187.892c81.251,38.091,182.812,55.864,307.234,55.864
		c137.107,0,251.37-27.932,347.851-81.252c93.945-55.864,162.504-132.027,203.13-233.597
		c25.396-58.409,40.626-116.798,48.249-175.207c7.615-58.391,10.15-129.483,10.15-210.735V2173.275z"/>
	<path clip-path="url(#XMLID_9_)" fill="#FFFFFF" stroke="#000000" d="M6272.444,3140.665c0-101.569-15.229-192.962-45.696-279.302
		c-33.012-83.796-76.173-157.416-137.116-218.368c-58.399-60.935-132.036-106.64-213.279-139.643
		c-83.796-33.002-177.742-50.775-279.303-50.775c-101.569,0-192.979,17.773-276.767,50.775
		c-83.787,30.477-154.881,78.708-213.289,137.116c-58.399,60.935-104.096,134.572-134.571,218.35
		c-33.003,86.341-48.241,180.277-48.241,281.847c0,101.57,15.238,195.507,45.706,279.303
		c33.011,83.796,78.707,157.434,137.106,218.368c60.943,60.935,132.037,109.184,213.289,142.187
		c81.252,30.476,172.662,45.705,276.767,45.705c101.561,0,195.507-15.229,279.303-45.705
		c81.243-33.003,152.346-78.708,213.279-142.187c58.399-60.935,104.104-132.046,134.572-218.368
		C6257.215,3336.172,6272.444,3242.235,6272.444,3140.665z M5932.208,3140.665c0,137.116-30.468,243.756-91.411,319.938
		c-60.935,78.708-142.187,116.799-243.747,116.799c-68.558,0-126.957-17.773-177.741-53.338
		c-50.785-35.547-88.867-83.778-114.264-149.801c-27.923-68.549-40.617-144.731-40.617-233.598
		c0-88.866,12.694-167.574,40.617-233.597c27.932-66.023,66.022-116.799,116.808-152.345
		c50.775-33.002,109.175-50.776,175.197-50.776c101.561,0,182.813,38.073,243.747,114.255
		C5901.74,2896.909,5932.208,3003.549,5932.208,3140.665z"/>
	<path clip-path="url(#XMLID_9_)" fill="#FFFFFF" stroke="#000000" d="M5777.867,4171.828c0-68.55-15.229-119.344-45.696-152.346
		c-30.476-33.002-71.102-50.775-121.878-50.775c-50.784,0-91.41,17.773-124.422,50.775c-30.467,35.547-45.696,83.796-45.696,152.346
		v1140.053c0,88.866-7.624,152.346-22.853,187.892c-15.238,35.546-45.705,53.319-91.411,53.319c-7.614,0-22.853,0-45.705-2.525
		c-20.309,0-35.547-2.545-45.705-2.545c-12.694-2.544-20.309-2.544-25.388-2.544c-38.091,0-71.094,12.703-93.946,38.091
		c-25.396,25.389-35.546,55.864-35.546,96.48c0,53.32,25.388,93.955,78.707,121.889c53.32,27.932,126.957,43.16,231.062,43.16
		c182.813,0,302.155-71.094,358.011-215.824c10.158-22.844,17.773-60.934,22.853-111.728c5.079-53.319,7.614-119.325,7.614-200.577
		V4171.828z M5610.293,3466.863c45.705,0,86.331-15.229,119.334-43.161c33.012-30.477,48.24-71.094,48.24-121.887
		c0-53.32-17.773-93.937-50.775-124.414c-33.012-27.932-73.638-40.616-116.799-40.616c-45.705,0-83.796,15.229-119.343,45.705
		c-33.002,30.458-50.775,71.093-50.775,119.325c0,53.32,15.229,93.955,50.775,121.887
		C5523.962,3454.16,5564.588,3466.863,5610.293,3466.863z"/>
	<path clip-path="url(#XMLID_9_)" fill="#FFFFFF" stroke="#000000" d="M7392.308,4656.795c0-101.57-15.229-192.962-45.695-279.303
		c-33.012-83.796-76.173-157.415-137.117-218.367c-58.398-60.936-132.036-106.641-213.279-139.643
		c-83.795-33.002-177.741-50.775-279.302-50.775c-101.569,0-192.98,17.773-276.768,50.775
		c-83.787,30.477-154.88,78.707-213.288,137.115c-58.399,60.936-104.096,134.572-134.572,218.351
		c-33.002,86.341-48.24,180.276-48.24,281.847c0,101.569,15.238,195.506,45.705,279.303
		c33.012,83.796,78.708,157.434,137.107,218.367c60.943,60.936,132.036,109.185,213.288,142.187
		c81.252,30.477,172.663,45.706,276.768,45.706c101.561,0,195.507-15.229,279.302-45.706
		c81.243-33.002,152.346-78.708,213.279-142.187c58.4-60.934,104.105-132.045,134.572-218.367
		C7377.079,4852.301,7392.308,4758.364,7392.308,4656.795z M7052.071,4656.795c0,137.115-30.467,243.756-91.41,319.938
		c-60.936,78.707-142.187,116.799-243.747,116.799c-68.559,0-126.957-17.773-177.742-53.338
		c-50.785-35.547-88.866-83.779-114.264-149.801c-27.923-68.55-40.616-144.731-40.616-233.598
		c0-88.867,12.693-167.574,40.616-233.598c27.933-66.022,66.023-116.799,116.808-152.344
		c50.775-33.004,109.175-50.776,175.198-50.776c101.561,0,182.812,38.072,243.747,114.255
		C7021.604,4413.039,7052.071,4519.679,7052.071,4656.795z"/>
	<path clip-path="url(#XMLID_9_)" fill="#FFFFFF" stroke="#000000" d="M8603.894,4740.592c88.867,0,157.425-12.703,205.665-38.092
		c48.25-25.388,73.638-81.252,73.638-165.049c0-91.41-22.853-182.803-71.094-271.668c-48.24-86.342-119.342-159.979-213.288-215.824
		c-93.946-55.865-208.2-83.797-340.237-83.797c-101.569,0-192.971,17.773-276.767,50.775
		c-83.788,30.477-154.88,78.708-210.745,139.66c-58.398,60.936-101.561,134.572-129.492,220.895
		c-30.467,83.797-45.705,177.732-45.705,276.758c0,213.299,60.943,380.873,180.277,505.285
		c121.877,124.414,289.461,182.822,507.82,182.822c93.945,0,177.742-12.703,251.37-33.002
		c73.638-25.406,134.571-55.865,182.821-93.955c48.24-38.092,83.787-78.709,109.175-119.344
		c22.853-40.617,35.556-76.163,35.556-106.639c0-35.547-10.158-60.936-33.012-81.253c-20.317-17.772-48.24-27.933-83.787-27.933
		c-33.011,0-58.398,7.615-73.637,22.862c-43.162,38.073-76.173,71.093-104.105,93.937c-25.387,22.862-55.863,45.705-86.33,66.023
		c-30.469,20.317-63.479,33.002-96.481,43.161c-33.013,10.159-71.103,15.229-111.72,15.229c-60.943,0-114.263-15.229-165.048-45.688
		c-50.784-27.933-91.401-73.638-121.878-132.046c-27.932-58.39-43.161-126.958-45.705-203.12H8603.894z M7941.185,4547.611
		c12.703-114.254,45.705-200.596,99.025-258.985c53.328-58.409,124.422-86.322,208.209-86.322
		c88.866,0,159.969,27.913,213.289,86.322c53.319,58.39,86.33,144.731,93.945,258.985H7941.185z"/>
	<path clip-path="url(#XMLID_9_)" fill="#FFFFFF" stroke="#000000" d="M10257.276,4903.095c0-63.479-17.773-116.798-50.785-165.048
		c-35.545-48.25-86.331-91.41-152.344-126.957c-66.015-35.547-152.346-66.023-256.45-91.411
		c-88.866-20.3-157.425-40.616-208.21-53.319c-50.775-15.229-91.4-35.547-121.878-58.391c-27.923-22.861-43.161-50.794-43.161-86.34
		c0-38.073,20.318-71.094,60.944-96.481c40.626-27.933,91.401-40.617,152.345-40.617c58.399,0,106.64,10.141,142.187,30.458
		c33.011,20.318,63.479,45.705,88.866,78.708c33.012,40.636,60.943,68.567,83.797,88.885c25.388,20.3,53.319,30.458,88.865,30.458
		c48.242,0,86.332-12.686,111.72-38.091c25.388-22.844,38.091-55.846,38.091-93.937c0-35.547-12.703-73.638-35.546-109.184
		c-25.397-38.092-60.943-71.094-106.649-101.57c-48.24-30.458-106.64-55.864-175.197-73.637
		c-71.094-17.773-149.811-27.914-236.133-27.914c-111.719,0-208.209,17.773-286.926,53.319
		c-78.708,38.073-137.107,86.322-177.733,144.731c-40.626,60.934-60.943,124.412-60.943,192.961
		c0,76.182,22.853,139.66,66.022,192.98c43.162,50.775,101.561,93.938,175.198,124.413c73.638,33.003,167.583,63.479,284.382,91.411
		c104.104,25.387,177.732,50.775,223.438,78.707c43.161,27.932,66.014,71.094,66.014,129.502c0,38.072-20.308,73.619-63.479,104.096
		c-45.695,30.477-99.024,45.705-167.573,45.705c-83.796,0-149.811-15.229-198.05-45.705
		c-48.25-30.477-91.411-73.638-124.424-134.572c-17.772-30.477-35.545-55.863-55.854-73.637
		c-17.773-17.773-45.706-25.389-81.252-25.389c-40.627,0-73.638,12.703-99.025,40.617c-27.933,25.406-40.627,55.864-40.627,93.955
		c0,55.864,20.309,111.729,60.936,167.574c43.17,55.864,106.648,104.113,192.971,139.66c86.331,35.547,190.436,53.32,312.313,53.32
		c126.958,0,236.142-17.773,325.008-48.25c88.867-35.547,154.88-83.777,200.586-152.346
		C10234.424,5075.758,10257.276,4997.031,10257.276,4903.095z"/>
</g>
</svg>
