<?xml version="1.0" encoding="utf-8"?>
<!-- Generator: Adobe Illustrator 21.0.0, SVG Export Plug-In . SVG Version: 6.00 Build 0)  -->
<svg version="1.1" id="Layer_1" xmlns="http://www.w3.org/2000/svg" xmlns:xlink="http://www.w3.org/1999/xlink" x="0px" y="0px"
	 viewBox="0 0 13680 7792.7" style="enable-background:new 0 0 13680 7792.7;" xml:space="preserve">
<style type="text/css">
	.st0{clip-path:url(#SVGID_2_);fill:#24A69A;}
	.st1{clip-path:url(#SVGID_2_);fill:#775CA7;}
</style>
<g>
	<defs>
		<rect id="SVGID_1_" x="-5.4" width="13680" height="7792.7"/>
	</defs>
	<clipPath id="SVGID_2_">
		<use xlink:href="#SVGID_1_"  style="overflow:visible;"/>
	</clipPath>
	<path class="st0" d="M2412.2,449.1c0-147.3-30.5-259-101.6-335.2c-66-76.2-157.4-111.7-269.2-111.7
		c-111.7,0-203.1,35.5-269.1,111.7c-60.9,76.2-96.5,187.9-96.5,335.2v2011c0,477.3-162.5,716-487.5,716
		c-121.9,0-218.3-25.4-284.4-81.2c-66-55.9-111.7-121.9-142.2-198.1c-25.4-76.2-55.9-177.8-81.3-304.7
		c-25.4-116.8-66-203.1-116.8-264.1c-45.7-55.9-121.9-81.2-218.4-81.2c-101.6,0-182.8,30.5-248.8,91.4
		C30.5,2399.1,0,2485.4,0,2602.2c0,111.7,15.2,223.5,50.8,345.3c30.5,121.9,76.2,228.5,127,319.9
		c101.6,172.6,233.6,299.6,401.2,375.8c162.5,76.2,365.6,111.7,614.5,111.7c274.2,0,502.7-55.9,695.7-162.5
		c187.9-111.7,325-264.1,406.3-467.2c50.8-116.8,81.3-233.6,96.5-350.4c15.2-116.8,20.3-259,20.3-421.5V449.1z"/>
	<path class="st0" d="M5699.4,2383.9c0-203.1-30.5-385.9-91.4-558.6c-66-167.6-152.3-314.8-274.2-436.7
		c-116.8-121.9-264.1-213.3-426.6-279.3c-167.6-66-355.5-101.6-558.6-101.6c-203.1,0-386,35.5-553.5,101.6
		c-167.6,61-309.8,157.4-426.6,274.2c-116.8,121.9-208.2,269.1-269.1,436.7c-66,172.7-96.5,360.6-96.5,563.7s30.5,391,91.4,558.6
		c66,167.6,157.4,314.9,274.2,436.7c121.9,121.9,264.1,218.4,426.6,284.4c162.5,61,345.3,91.4,553.5,91.4
		c203.1,0,391-30.5,558.6-91.4c162.5-66,304.7-157.4,426.6-284.4c116.8-121.9,208.2-264.1,269.1-436.7
		C5669,2774.9,5699.4,2587,5699.4,2383.9z M5019,2383.9c0,274.2-60.9,487.5-182.8,639.9c-121.9,157.4-284.4,233.6-487.5,233.6
		c-137.1,0-253.9-35.5-355.5-106.7c-101.6-71.1-177.7-167.6-228.5-299.6c-55.8-137.1-81.2-289.5-81.2-467.2s25.4-335.1,81.2-467.2
		c55.9-132,132-233.6,233.6-304.7c101.6-66,218.3-101.6,350.4-101.6c203.1,0,365.6,76.1,487.5,228.5
		C4958,1896.4,5019,2109.6,5019,2383.9z"/>
	<path class="st1" d="M4710.3,4446.2c0-137.1-30.5-238.7-91.4-304.7c-61-66-142.2-101.6-243.8-101.6
		c-101.6,0-182.8,35.5-248.8,101.6c-60.9,71.1-91.4,167.6-91.4,304.7v2280.1c0,177.7-15.2,304.7-45.7,375.8
		c-30.5,71.1-91.4,106.6-182.8,106.6c-15.2,0-45.7,0-91.4-5.1c-40.6,0-71.1-5.1-91.4-5.1c-25.4-5.1-40.6-5.1-50.8-5.1
		c-76.2,0-142.2,25.4-187.9,76.2c-50.8,50.8-71.1,111.7-71.1,193c0,106.6,50.8,187.9,157.4,243.8c106.6,55.9,253.9,86.3,462.1,86.3
		c365.6,0,604.3-142.2,716-431.6c20.3-45.7,35.5-121.9,45.7-223.5c10.2-106.6,15.2-238.6,15.2-401.2V4446.2z M4375.1,3036.3
		c91.4,0,172.7-30.5,238.7-86.3c66-61,96.5-142.2,96.5-243.8c0-106.6-35.5-187.9-101.6-248.8c-66-55.9-147.3-81.2-233.6-81.2
		c-91.4,0-167.6,30.5-238.7,91.4c-66,60.9-101.6,142.2-101.6,238.6c0,106.6,30.5,187.9,101.6,243.8
		C4202.5,3010.9,4283.7,3036.3,4375.1,3036.3z"/>
	<path class="st1" d="M7939.2,5416.1c0-203.1-30.5-385.9-91.4-558.6c-66-167.6-152.3-314.8-274.2-436.7
		c-116.8-121.9-264.1-213.3-426.6-279.3c-167.6-66-355.5-101.6-558.6-101.6c-203.1,0-386,35.5-553.5,101.6
		c-167.6,61-309.8,157.4-426.6,274.2c-116.8,121.9-208.2,269.1-269.1,436.7c-66,172.7-96.5,360.6-96.5,563.7
		c0,203.1,30.5,391,91.4,558.6c66,167.6,157.4,314.9,274.2,436.7c121.9,121.9,264.1,218.4,426.6,284.4
		c162.5,61,345.3,91.4,553.5,91.4c203.1,0,391-30.5,558.6-91.4c162.5-66,304.7-157.4,426.6-284.4
		c116.8-121.9,208.2-264.1,269.1-436.7C7908.7,5807.1,7939.2,5619.3,7939.2,5416.1z M7258.7,5416.1c0,274.2-60.9,487.5-182.8,639.9
		c-121.9,157.4-284.4,233.6-487.5,233.6c-137.1,0-253.9-35.5-355.5-106.7c-101.6-71.1-177.7-167.6-228.5-299.6
		c-55.8-137.1-81.2-289.5-81.2-467.2s25.4-335.1,81.2-467.2c55.9-132,132-233.6,233.6-304.7c101.6-66,218.3-101.6,350.4-101.6
		c203.1,0,365.6,76.1,487.5,228.5C7197.8,4928.6,7258.7,5141.9,7258.7,5416.1z"/>
	<path class="st1" d="M10362.3,5583.7c177.7,0,314.8-25.4,411.3-76.2c96.5-50.8,147.3-162.5,147.3-330.1
		c0-182.8-45.7-365.6-142.2-543.3c-96.5-172.7-238.7-320-426.6-431.6c-187.9-111.7-416.4-167.6-680.5-167.6
		c-203.1,0-385.9,35.5-553.5,101.6c-167.6,61-309.8,157.4-421.5,279.3c-116.8,121.9-203.1,269.1-259,441.8
		c-60.9,167.6-91.4,355.5-91.4,553.5c0,426.6,121.9,761.7,360.6,1010.6c243.8,248.8,578.9,365.6,1015.6,365.6
		c187.9,0,355.5-25.4,502.7-66c147.3-50.8,269.1-111.7,365.6-187.9c96.5-76.2,167.6-157.4,218.3-238.7
		c45.7-81.2,71.1-152.3,71.1-213.3c0-71.1-20.3-121.9-66-162.5c-40.6-35.5-96.5-55.9-167.6-55.9c-66,0-116.8,15.2-147.3,45.7
		c-86.3,76.1-152.3,142.2-208.2,187.9c-50.8,45.7-111.7,91.4-172.7,132c-60.9,40.6-127,66-193,86.3c-66,20.3-142.2,30.5-223.4,30.5
		c-121.9,0-228.5-30.5-330.1-91.4c-101.6-55.9-182.8-147.3-243.8-264.1c-55.9-116.8-86.3-253.9-91.4-406.2H10362.3z M9036.9,5197.8
		c25.4-228.5,91.4-401.2,198.1-518c106.7-116.8,248.8-172.6,416.4-172.6c177.7,0,319.9,55.8,426.6,172.6
		c106.6,116.8,172.7,289.5,187.9,518H9036.9z"/>
	<path class="st1" d="M13669.1,5908.7c0-127-35.5-233.6-101.6-330.1c-71.1-96.5-172.7-182.8-304.7-253.9
		c-132-71.1-304.7-132-512.9-182.8c-177.7-40.6-314.9-81.2-416.4-106.6c-101.6-30.5-182.8-71.1-243.8-116.8
		c-55.8-45.7-86.3-101.6-86.3-172.7c0-76.1,40.6-142.2,121.9-193c81.3-55.9,182.8-81.2,304.7-81.2c116.8,0,213.3,20.3,284.4,60.9
		c66,40.6,127,91.4,177.7,157.4c66,81.3,121.9,137.1,167.6,177.8c50.8,40.6,106.6,60.9,177.7,60.9c96.5,0,172.7-25.4,223.4-76.2
		c50.8-45.7,76.2-111.7,76.2-187.9c0-71.1-25.4-147.3-71.1-218.4c-50.8-76.2-121.9-142.2-213.3-203.1
		c-96.5-60.9-213.3-111.7-350.4-147.3c-142.2-35.5-299.6-55.8-472.3-55.8c-223.4,0-416.4,35.5-573.9,106.6
		c-157.4,76.1-274.2,172.6-355.5,289.5c-81.3,121.9-121.9,248.8-121.9,385.9c0,152.4,45.7,279.3,132,386
		c86.3,101.6,203.1,187.9,350.4,248.8c147.3,66,335.2,127,568.8,182.8c208.2,50.8,355.5,101.6,446.9,157.4
		c86.3,55.9,132,142.2,132,259c0,76.1-40.6,147.2-127,208.2c-91.4,61-198,91.4-335.1,91.4c-167.6,0-299.6-30.5-396.1-91.4
		c-96.5-61-182.8-147.3-248.8-269.1c-35.5-61-71.1-111.7-111.7-147.3c-35.5-35.5-91.4-50.8-162.5-50.8
		c-81.3,0-147.3,25.4-198.1,81.2c-55.9,50.8-81.3,111.7-81.3,187.9c0,111.7,40.6,223.5,121.9,335.1
		c86.3,111.7,213.3,208.2,385.9,279.3c172.7,71.1,380.9,106.6,624.6,106.6c253.9,0,472.3-35.5,650-96.5
		c177.7-71.1,309.8-167.6,401.2-304.7C13623.4,6254.1,13669.1,6096.6,13669.1,5908.7z"/>
</g>
</svg>
